<svg width="202" height="75" viewBox="0 0 202 75" fill="none" xmlns="http://www.w3.org/2000/svg">
<path d="M6 61.2501C6 64.3798 8.29901 66.9763 11.2959 67.4578V21.2812H6V61.2501Z" fill="white"/>
<path d="M60.0508 8H44.3374V13.1709H63.9832L60.0508 8Z" fill="white"/>
<path d="M13.2959 67.4578C16.2925 66.9762 18.5913 64.3796 18.5913 61.2501V12.5859H13.2959V67.4578Z" fill="white"/>
<path fill-rule="evenodd" clip-rule="evenodd" d="M34.0625 8L39.25 14.7783C39.439 15.0254 39.7325 15.1709 40.044 15.1709H44V33L47.8151 30.2402C48.2253 29.9448 48.7775 29.9448 49.1854 30.2402L53 33V15.1709H69V61.25C69 64.7207 66.1758 67.5449 62.7041 67.5449H17.6924C19.4663 66.0224 20.5913 63.7656 20.5913 61.25V8H34.0625Z" fill="white"/>
<path d="M86.828 34.42C87.8333 34.42 88.7323 34.2557 89.525 33.927C90.3177 33.5984 90.8687 33.0377 91.178 32.245L91.468 31.52L86.103 19.63C85.813 18.934 85.5327 18.383 85.262 17.977C84.9913 17.571 84.6143 17.223 84.131 16.933C83.6477 16.643 83 16.4787 82.188 16.44V15.86H85.668C86.4993 15.86 87.176 16.15 87.698 16.73C88.2393 17.2907 88.7227 18.064 89.148 19.05L93.063 27.75L98.283 15.86H100.023L92.889 32.245C92.019 34.275 90.482 35.29 88.278 35.29H86.828V34.42Z" fill="white"/>
<path d="M124.806 36.305C123.414 36.305 122.331 36.0924 121.558 35.667C120.785 35.2417 120.234 34.5844 119.905 33.695C119.596 32.7864 119.441 31.578 119.441 30.07V18.905L112.191 35H111.611L104.071 18.615V35H102.911V15.86H105.666L112.626 30.94L119.441 15.86H122.051V30.07C122.051 31.868 122.273 33.26 122.718 34.246C123.182 35.232 123.878 35.725 124.806 35.725V36.305Z" fill="white"/>
<path d="M128.13 19.34C128.13 18.354 127.994 17.629 127.724 17.165C127.453 16.6817 126.912 16.44 126.1 16.44H125.52V15.86H128.13C128.845 15.86 129.377 15.9567 129.725 16.15C130.092 16.324 130.353 16.6527 130.508 17.136C130.662 17.6194 130.74 18.354 130.74 19.34V24.56H139.44V15.86H142.05V31.52C142.05 32.506 142.185 33.2407 142.456 33.724C142.726 34.188 143.268 34.42 144.08 34.42H144.66V35H142.05C141.334 35 140.793 34.913 140.426 34.739C140.078 34.5457 139.826 34.2074 139.672 33.724C139.517 33.2407 139.44 32.506 139.44 31.52V25.72H130.74V35H128.13V19.34Z" fill="white"/>
<path d="M148.237 19.34C148.237 18.354 148.102 17.629 147.831 17.165C147.56 16.6817 147.019 16.44 146.207 16.44H145.627V15.86H148.237C148.952 15.86 149.484 15.9567 149.832 16.15C150.199 16.324 150.46 16.6527 150.615 17.136C150.77 17.6194 150.847 18.354 150.847 19.34V23.98H154.037C155.951 23.98 157.633 24.386 159.083 25.198C160.552 25.9907 161.287 27.4214 161.287 29.49C161.287 31.5587 160.552 32.999 159.083 33.811C157.633 34.6037 155.951 35 154.037 35H148.237V19.34ZM166.217 35C165.502 35 164.96 34.913 164.593 34.739C164.245 34.5457 163.994 34.2074 163.839 33.724C163.684 33.2407 163.607 32.506 163.607 31.52V15.86H166.217V31.52C166.217 32.506 166.352 33.2407 166.623 33.724C166.894 34.188 167.435 34.42 168.247 34.42H168.827V35H166.217ZM153.602 33.985C155.033 33.985 156.183 33.608 157.053 32.854C157.942 32.0807 158.387 30.9594 158.387 29.49C158.387 28.0207 157.942 26.909 157.053 26.155C156.183 25.3817 155.033 24.995 153.602 24.995C152.693 24.995 151.775 25.1304 150.847 25.401V33.579C151.775 33.8497 152.693 33.985 153.602 33.985Z" fill="white"/>
<path d="M172.366 19.34C172.366 18.354 172.231 17.629 171.96 17.165C171.689 16.6817 171.148 16.44 170.336 16.44H169.756V15.86H172.366C173.081 15.86 173.613 15.9567 173.961 16.15C174.328 16.324 174.589 16.6527 174.744 17.136C174.899 17.6194 174.976 18.354 174.976 19.34V32.39L184.256 15.86H186.866V35H184.256V18.47L174.976 35H172.366V19.34ZM179.326 14.7C177.586 14.7 176.329 13.83 175.556 12.09L176.136 11.655C176.832 12.525 177.895 12.96 179.326 12.96C180.757 12.96 181.82 12.525 182.516 11.655L183.096 12.09C182.323 13.83 181.066 14.7 179.326 14.7Z" fill="white"/>
<path d="M101.392 66.18C100.24 66.18 99.1 65.868 97.972 65.244C96.844 64.596 95.944 63.348 95.272 61.5L94.372 59.16H84.292L81.412 66H79.792L89.872 42.24H90.952L98.872 61.5C99.472 62.892 100.036 63.852 100.564 64.38C101.092 64.884 101.848 65.184 102.832 65.28V66C102.4 66.12 101.92 66.18 101.392 66.18ZM84.832 57.72H93.652L89.332 47.28L84.832 57.72Z" fill="white"/>
<path d="M105.668 46.56C105.668 45.336 105.5 44.436 105.164 43.86C104.828 43.26 104.156 42.96 103.148 42.96H102.428V42.24H111.788C114.092 42.24 116.168 42.732 118.016 43.716C119.864 44.7 120.788 46.608 120.788 49.44C120.788 51.312 120.308 52.752 119.348 53.76C118.388 54.768 117.308 55.44 116.108 55.776C114.932 56.112 113.852 56.28 112.868 56.28H108.908V66H105.668V46.56ZM111.608 55.02C112.376 55.02 113.192 54.828 114.056 54.444C114.92 54.036 115.652 53.4 116.252 52.536C116.876 51.672 117.188 50.58 117.188 49.26C117.188 47.94 116.876 46.848 116.252 45.984C115.652 45.12 114.92 44.496 114.056 44.112C113.192 43.704 112.376 43.5 111.608 43.5C110.768 43.5 109.868 43.62 108.908 43.86V54.66C109.868 54.9 110.768 55.02 111.608 55.02Z" fill="white"/>
<path d="M131.488 54.3L126.448 46.92C125.872 46.08 125.368 45.42 124.936 44.94C124.504 44.436 123.94 43.992 123.244 43.608C122.548 43.224 121.696 43.008 120.688 42.96V42.24H125.008C126.064 42.24 126.952 42.588 127.672 43.284C128.392 43.956 129.184 44.928 130.048 46.2L133.648 51.6L140.848 42.24H142.648L134.548 52.86L140.308 61.32C141.052 62.424 141.844 63.348 142.684 64.092C143.548 64.812 144.496 65.208 145.528 65.28V66H141.748C140.716 66 139.804 65.64 139.012 64.92C138.22 64.176 137.452 63.216 136.708 62.04L132.388 55.56L124.288 66H122.488L131.488 54.3Z" fill="white"/>
<path d="M148.839 46.56C148.839 45.336 148.671 44.436 148.335 43.86C147.999 43.26 147.327 42.96 146.319 42.96H145.599V42.24H148.839C149.727 42.24 150.387 42.36 150.819 42.6C151.275 42.816 151.599 43.224 151.791 43.824C151.983 44.424 152.079 45.336 152.079 46.56V62.76L163.599 42.24H166.839V66H163.599V45.48L152.079 66H148.839V46.56Z" fill="white"/>
<path d="M173.765 46.56C173.765 45.336 173.597 44.436 173.261 43.86C172.925 43.26 172.253 42.96 171.245 42.96H170.525V42.24H179.885C182.501 42.24 184.769 42.672 186.689 43.536C188.633 44.4 189.605 46.068 189.605 48.54C189.605 49.668 189.221 50.688 188.453 51.6C187.685 52.512 186.509 53.232 184.925 53.76C187.133 54.12 188.669 54.78 189.533 55.74C190.421 56.676 190.865 57.936 190.865 59.52C190.865 61.944 189.905 63.636 187.985 64.596C186.089 65.532 183.749 66 180.965 66H173.765V46.56ZM180.425 53.22C181.409 53.22 182.333 53.04 183.197 52.68C184.085 52.296 184.805 51.744 185.357 51.024C185.909 50.28 186.185 49.392 186.185 48.36C186.185 47.28 185.861 46.38 185.213 45.66C184.565 44.916 183.737 44.376 182.729 44.04C181.745 43.68 180.737 43.5 179.705 43.5C178.865 43.5 177.965 43.62 177.005 43.86V53.22H180.425ZM180.425 64.74C182.609 64.74 184.289 64.308 185.465 63.444C186.665 62.58 187.265 61.332 187.265 59.7C187.265 58.068 186.677 56.82 185.501 55.956C184.349 55.092 182.657 54.66 180.425 54.66H177.005V64.236C178.157 64.572 179.297 64.74 180.425 64.74Z" fill="white"/>
</svg>
