<svg width="89" height="89" viewBox="0 0 89 89" fill="none" xmlns="http://www.w3.org/2000/svg">
<path d="M76 25V79H16V7H58M76 25L58 7M76 25H58V7" stroke="white" stroke-width="6"/>
<path d="M29.9378 47.6547L34 45.3094L38.0622 47.6547V52.3453L34 54.6906L29.9378 52.3453V47.6547Z" fill="#C4C4C4" stroke="white" stroke-width="4"/>
<path d="M52.9378 37.6547L57 35.3094L61.0622 37.6547V42.3453L57 44.6906L52.9378 42.3453V37.6547Z" fill="#C4C4C4" stroke="white" stroke-width="4"/>
<path d="M52.9378 59.6547L57 57.3094L61.0622 59.6547V64.3453L57 66.6906L52.9378 64.3453V59.6547Z" fill="#C4C4C4" stroke="white" stroke-width="4"/>
<path d="M38.5 52.5L52.5 59" stroke="white" stroke-width="5"/>
<path d="M39 48L52.5 42" stroke="white" stroke-width="5"/>
</svg>
