<svg width="118" height="118" viewBox="0 0 118 118" fill="none" xmlns="http://www.w3.org/2000/svg">
    <path d="M85.742 43.407C85.742 28.123 73.354 12 58.07 12S30.398 28.123 30.398 43.407c0 15.283 12.388 27.672 27.672 27.672 15.284-.001 27.672-12.39 27.672-27.672z" fill="#583A2F"/>
    <path d="M42.575 102.32h35.132s3.586-38.277 3.128-53.437c-.457-15.16-14.94-24.46-27.896-24.46-12.957 0-26.37 58.469-10.364 77.897z" fill="#583A2F"/>
    <path d="M90.207 92.342c-2.824-5.345-15.785-9.371-24.237-11.485V62.768H51.03v18.089c-8.452 2.114-21.413 6.14-24.237 11.485C23.64 103.553 21 117.799 21 117.799h75s-1.783-15.275-5.793-25.457z" fill="#F1C9A5"/>
    <path d="M90.207 92.342c-2.824-5.345-15.785-9.371-24.237-11.485V62.768H58.5V117.8H96s-1.783-15.275-5.793-25.457z" fill="#E4B692"/>
    <path opacity=".1" d="M51.03 74.354c1.344 3.857 6.766 6.067 10.748 6.067 1.44 0 2.842-.241 4.192-.683v-16.97H51.03v11.586z" fill="#DDAC8C"/>
    <path d="M77.707 46.991c0-15.616-8.6-24.496-19.207-24.496-10.608 0-19.207 8.88-19.207 24.496 0 15.617 8.6 28.278 19.207 28.278 10.607 0 19.207-12.66 19.207-28.278z" fill="#F1C9A5"/>
    <path d="M74.783 57.822c-3.482-.334-5.832-3.786-5.243-7.704.582-3.92 3.88-6.832 7.363-6.498 3.48.334 5.828 3.784 5.24 7.705-.583 3.921-3.878 6.83-7.36 6.497z" fill="#E4B692"/>
    <path d="M34.203 51.325c-.588-3.921 1.76-7.371 5.238-7.705 3.485-.333 6.783 2.577 7.367 6.498.588 3.918-1.765 7.37-5.244 7.704-3.483.332-6.777-2.576-7.361-6.497z" fill="#F1C9A5"/>
    <path d="M77.707 46.991c0-15.616-8.6-24.496-19.207-24.496v52.774c10.607 0 19.207-12.66 19.207-28.278z" fill="#E4B692"/>
    <path d="M65.97 80.858v-4.08c-2.415.207-4.912.317-7.47.317s-5.055-.11-7.47-.318v4.08c-8.452 2.114-21.413 6.14-24.237 11.486C23.64 103.554 21 117.8 21 117.8h75s-1.782-15.275-5.793-25.457c-2.824-5.346-15.785-9.373-24.237-11.486z" fill="#C51C39"/>
    <path d="M49.342 81.127v.023" stroke="#fff" stroke-width="1.431" stroke-linecap="round" stroke-linejoin="round"/>
    <path d="M49.513 82.894c.823 4.212 4.534 7.389 8.988 7.389 4.759 0 8.67-3.63 9.115-8.271" stroke="#fff" stroke-width="1.431" stroke-linecap="round" stroke-linejoin="round" stroke-dasharray="0.05 1.92"/>
    <path d="M67.658 81.15v-.024" stroke="#fff" stroke-width="1.431" stroke-linecap="round" stroke-linejoin="round"/>
    <path d="M30.398 43.407s-3.373 55.954-5.889 74.392h19.208l-3.904-51.923M85.741 43.407s3.374 55.954 5.889 74.392H72.423l2.543-48.94M59.605 19.362c-11.48 0-21.89 12.784-21.89 24.898 0 .047.004.092.004.137h10.84l1.027-8.084v8.084h10.976v-8.084l1.924 8.084h6.964v-6.712l1.67 6.712h8.162c0-.047.003-.091.003-.137 0-12.114-8.201-24.898-19.68-24.898z" fill="#583A2F"/>
</svg>
