<svg width="118" height="118" viewBox="0 0 118 118" fill="none" xmlns="http://www.w3.org/2000/svg">
    <g clip-path="url(#a)">
        <path d="M58.008 119V17c-4.462 0-12.89 1-18.84 6-3.776 3.173-7.933 12-8.428 23.5-2.975-.5-3.958.45-4.463 3-.504 2.55.496 5.333 1.488 6.5 2.974 3.5 5.15 5.105 5.453 5.5 3.471 4.5 4.958 10.667 8.43 15 0 2.5 0 4.5-2.48 7-3.47 3.5-12.89 9.5-17.353 14-6.464 6.519-6.941 13-6.941 21.5h43.134z" fill="#FFD098"/>
        <path d="M58.008 119V17c4.463 0 12.891 1 18.84 6 3.777 3.173 7.933 12 8.43 23.5 2.974-.5 3.957.45 4.462 3 .504 2.55-.496 5.333-1.488 6.5-2.975 3.5-5.15 5.105-5.454 5.5-3.47 4.5-4.958 10.667-8.428 15 0 2.5 0 4.5 2.479 7 3.47 3.5 12.89 9.5 17.353 14 6.464 6.519 6.941 13 6.941 21.5H58.008z" fill="#F1BA85"/>
        <path fill-rule="evenodd" clip-rule="evenodd" d="M31.235 47c.827 3.5 2.552 10.416 5.95 13.5 4.958 4.5 8.428 7 10.412 7.5 1.322-1.5 6.048-4.5 10.411-4.5 4.363 0 9.09 3 10.412 4.5 1.983-.5 5.454-3 10.412-7.5 3.398-3.084 5.123-10 5.95-13.5 0 15.5-6.4 25.606-8.925 29-2.975 4-5.454 6-8.428 8-2.975 2-6.446 3-9.42 3-2.975 0-6.446-1-9.42-3-2.976-2-5.455-4-8.43-8-2.523-3.394-8.924-13.5-8.924-29z" fill="#0A2F3D"/>
        <path fill-rule="evenodd" clip-rule="evenodd" d="M39.664 82l.496 19.5c1.487 5.5 7.14 12 17.848 12 10.71 0 16.362-6.5 17.85-12l.495-19.5 7.437 6.5c0 1.286-.072 2.928-.152 4.754-.232 5.277-.53 12.086.648 16.246 1.586 5.6 7.933 8.667 10.907 9.5H20.824c2.974-.833 9.32-3.9 10.907-9.5 1.179-4.16.88-10.97.648-16.246-.08-1.826-.152-3.468-.152-4.754l7.437-6.5z" fill="#C53838"/>
        <path d="M52.059 71.28c0-.48.262-.926.687-1.144 4.142-2.13 6.664-2.118 10.574.006.396.215.638.638.638 1.093 0 .99-1.08 1.598-1.97 1.177-2.754-1.303-4.943-1.273-7.963.088-.903.406-1.966-.222-1.966-1.22z" fill="#FFD098"/>
        <path d="M46.11 52c4.654 0 8.428-2.91 8.428-6.5S50.764 39 46.109 39s-8.428 2.91-8.428 6.5 3.773 6.5 8.428 6.5zM68.916 52c4.655 0 8.429-2.91 8.429-6.5S73.57 39 68.916 39s-8.429 2.91-8.429 6.5 3.774 6.5 8.429 6.5z" fill="#000"/>
        <path d="M27.269 29.904c-.661 2.5-.992 14.496 2.975 18.096.991-.334 5.064-11.996 5.858-13.596.793-1.6 1.91 4.93 2.075 4.096 1.156 1 3.18-5.596 4.37-5.596 1.487 0 5.05 2.596 6.041 2.596.992 0 1.892-5.596 3.379-7.596S50.076 37 53.05 35.5c2.38-1.2 5.95.404 5.95-4.596 3.562 7.596 8.131 6.196 8.924 4.596.992-2 8.337-1.096 9.825.904 1.19 1.6 5.784 4.263 6.94 4.596 1.158-.333-1.982 6.1 0 4.5 2.48-2 3.967-12.096 3.967-14.596s-.9-1-1.891-3c-.992-2-2.075-2.5-2.075-5S86.765 20.5 82.798 19c-3.966-1.5-5.454-.5-3.47-4 1.983-3.5-6.042-4.096-10.008-6.596C65.354 5.904 60.487 11 58.504 9c-1.983-2-1.083 1.404-4.554-.596-3.47-2-7.437 5.5-9.916 3.5s-7.437 6.5-8.924 5.5c-1.19-.8-6.354 9.5-7.841 12.5z" fill="#0A2F3D"/>
        <path d="M85.773 45.5l-9.42 2-12.89-1.5c-5.455-3.845-5.95-4.272-10.908 0l-14.379 1-7.932-1.5" stroke="#000"/>
        <path d="M67.665 40.02C63.93 40.272 62.47 45 62.47 45s2.437-2.113 3.966-3c2.394-1.388 5.95-.112 5.95-.112s-.988-2.118-4.722-1.867zM44.858 41.02c-3.735.251-5.194 4.98-5.194 4.98s2.438-2.113 3.966-3c2.394-1.388 5.95-.112 5.95-.112s-.987-2.118-4.722-1.867z" fill="#fff"/>
    </g>
    <defs>
        <clipPath id="a">
            <path fill="#fff" d="M0 0h118v118H0z"/>
        </clipPath>
    </defs>
</svg>
