<svg width="118" height="118" viewBox="0 0 118 118" fill="none" xmlns="http://www.w3.org/2000/svg">
    <g clip-path="url(#a)">
        <path d="M46.607 18.849s-11.395-1.746-15.776 9.465c-2.881 7.375.901 30.202-1.803 38.09 3.606-7.212 4.507-9.466 4.507-9.466s-.9 12.394-2.93 15.325C35.79 61.22 35.79 64.15 35.79 64.15s.001 9.017-1.803 13.298c4.057-6.762 4.958-11.045 4.958-11.045s1.352 2.705-1.127 8.79c2.029-2.929 3.607-7.663 3.607-7.663s.337 5.862 1.126 8.454c.451-3.833 1.578-4.96 1.578-4.96s1.916 3.267 2.478 5.86c.565-3.72 0-6.31 0-6.31l3.628 6.463 12.826-.942 1.578-4.282s1.353 2.48 0 5.184c1.804-1.69 2.817-3.72 2.817-5.522.338 4.959 0 8.227 0 8.227 2.817-4.733 3.043-9.465 3.043-9.465s1.013 7.323.788 7.66c-.226.338 2.254-3.606 1.916-8.79 1.127 4.96 1.915 5.975.79 8.566 3.38-5.072 2.14-9.466 2.14-9.466s2.03 2.591 1.804 5.409c2.14-5.522.902-8.79.902-8.79s2.929 2.143 2.254 6.086c2.028-4.734.1-9.58.1-9.58s1.815 2.03 4.633 2.255c-2.141-2.816-1.69-6.874-1.69-6.874s2.028.563 2.14 3.155c.677-3.043 2.592-10.48 0-14.538 3.043 1.578 3.72 2.255 3.72 2.255s-2.142-5.41-4.96-7.438c-1.352-5.522-3.04-11.156-6.422-12.621 4.282 1.466 7.099 2.255 8.79.902-2.93-.225-6.65-2.816-8.34-5.86 4.282.338 6.085 2.029 6.085 2.029s-3.943-5.184-8.676-5.747c-4.958-5.184-11.664-8.998-16.96-7.533-5.298 1.463-9.524 1.785-12.905 7.533z" fill="#5A3017"/>
        <path d="M90.983 91.666C86.545 83.263 58.004 77.99 58.004 77.99s-28.54 5.273-32.979 13.677C21.744 103.326 19 118.144 19 118.144h78.009s-1.853-15.887-6.026-26.478z" fill="#F1C9A5"/>
        <path d="M58.004 77.99s28.54 5.273 32.98 13.677c4.172 10.591 6.025 26.477 6.025 26.477H58.004V77.99z" fill="#E4B692"/>
        <path d="M65.775 60.906h-15.54V86.91h15.54V60.906z" fill="#F1C9A5"/>
        <path d="M65.775 60.906h-7.77V86.91h7.77V60.906z" fill="#E4B692"/>
        <path opacity=".1" d="M50.235 72.956c1.398 4.011 7.038 6.312 11.18 6.312 1.499 0 2.956-.25 4.36-.711V60.906h-15.54v12.05z" fill="#DDAC8C"/>
        <path d="M77.983 44.496c0-16.244-8.946-25.48-19.979-25.48s-19.978 9.236-19.978 25.48c0 21.848 8.945 29.412 19.978 29.412 11.033 0 19.979-8.475 19.979-29.412z" fill="#F1C9A5"/>
        <path d="M74.942 55.759c-3.621-.38-6.067-4.28-5.454-8.71.606-4.434 4.036-7.726 7.66-7.348 3.619.377 6.06 4.276 5.449 8.71-.608 4.433-4.034 7.723-7.655 7.348z" fill="#E4B692"/>
        <path d="M33.553 48.41c-.612-4.432 1.83-8.332 5.448-8.71 3.626-.377 7.055 2.915 7.662 7.349.612 4.43-1.835 8.33-5.456 8.71-3.62.375-7.047-2.915-7.654-7.348z" fill="#F1C9A5"/>
        <path d="M77.983 44.496c0-16.244-8.946-25.48-19.979-25.48v54.892c11.033 0 19.979-8.475 19.979-29.412z" fill="#E4B692"/>
        <path d="M90.983 91.667c-2.592-4.908-13.396-8.745-21.942-11.089l-11.037 22.859-11.036-22.86c-8.547 2.344-19.35 6.181-21.943 11.089C21.744 103.328 19 118.145 19 118.145h78.009s-1.853-15.888-6.026-26.478z" fill="#3A526E"/>
        <path d="M71.525 83.466c-1.09-3.334-4.15-3.672-4.15-3.672l-3.335 8.4 8.231 7.651c.001-.002-.407-7.142-.746-12.379zM48.605 79.793s-3.06.339-4.15 3.672c-.34 5.238-.747 12.378-.747 12.378l8.23-7.65-3.333-8.4z" fill="#fff"/>
        <path d="M41.634 82.168c-7.219 2.339-14.536 5.576-16.609 9.497C21.744 103.328 19 118.144 19 118.144h22.635l-.001-35.976zM73.504 81.891v36.253h23.505s-1.853-15.887-6.026-26.477c-2.156-4.081-9.988-7.418-17.48-9.776z" fill="#161510"/>
        <path d="M76.245 44.22c-.19-.288-.44-.531-.755-.73-.772-.497-1.934-.735-3.562-.735-1.462 0-3.046.188-4.444.354-.325.038-.639.075-.934.108-3.833.424-5.95 1.264-6.863 2.72-.304.486-.451 1.002-.49 1.548-.858-.303-1.7-.17-2.376.111-.026-.587-.173-1.14-.498-1.658-.913-1.457-3.03-2.297-6.863-2.72l-.934-.109c-1.398-.167-2.983-.354-4.443-.354-.327 0-.634.011-.923.031-1.742.114-2.832.578-3.395 1.435-.313.476-.428 1.052-.36 1.719.052.483.197 1.012.448 1.592 2.215 5.108 5.035 7.58 8.872 7.777.154.008.319.014.491.014 2.59 0 5.682-.914 6.592-3.475l.025-.072c.344-.967.665-1.878.845-2.728.126-.095.34-.235.615-.35.452-.19 1.06-.301 1.693 0 .104.048.207.105.312.178.169.9.511 1.867.877 2.899l.026.072c.91 2.56 4.002 3.475 6.592 3.475.171 0 .337-.006.49-.014 3.837-.198 6.656-2.67 8.873-7.777.247-.569.391-1.093.444-1.57.075-.676-.04-1.26-.355-1.74zm-14.914 7.226l-.025-.072c-.405-1.14-.777-2.19-.883-3.092l.016-.018c-.006-.005-.014-.01-.02-.018-.071-.64-.006-1.208.284-1.673.682-1.087 2.637-1.796 5.98-2.165.298-.033.616-.071.944-.11 1.364-.162 2.912-.346 4.303-.346 1.797 0 2.913.313 3.315.925.303.462.24 1.195-.185 2.178-2.043 4.705-4.458 6.881-7.835 7.057-.134.008-.28.012-.429.012-.758 0-4.56-.13-5.465-2.678zm-6.653 0c-.906 2.548-4.709 2.678-5.462 2.678-.15 0-.294-.004-.429-.012-3.376-.175-5.792-2.352-7.835-7.057-.426-.983-.488-1.716-.185-2.178.403-.613 1.518-.925 3.316-.925 1.39 0 2.937.184 4.302.346.328.039.645.077.943.11 3.341.37 5.298 1.078 5.98 2.165.703 1.123.097 2.827-.603 4.8l-.027.073z" fill="#26232C"/>
        <path d="M61.331 51.447l-.025-.073c-.405-1.14-.777-2.19-.883-3.092l.016-.018c-.006-.005-.014-.01-.02-.018-.071-.64-.006-1.208.284-1.673.682-1.087 2.637-1.796 5.98-2.165.298-.033.616-.07.944-.11 1.364-.162 2.912-.345 4.303-.345 1.797 0 2.913.312 3.315.924.303.462.24 1.195-.185 2.178-2.043 4.706-4.458 6.882-7.835 7.058-.134.007-.28.011-.429.011-.758 0-4.56-.13-5.465-2.677zm-6.653 0c-.906 2.548-4.709 2.677-5.462 2.677-.15 0-.294-.004-.429-.011-3.376-.176-5.792-2.352-7.835-7.058-.426-.983-.488-1.716-.185-2.178.403-.613 1.518-.924 3.316-.924 1.39 0 2.937.183 4.302.345.328.04.645.077.943.11 3.341.37 5.298 1.078 5.98 2.165.703 1.123.097 2.827-.603 4.8l-.027.074z" fill="#fff"/>
        <path d="M71.344 28.173s.435 7.598-11.951 17.007c3.042-4.342 3.042-7.238 3.042-7.238s-2.554 4.636-10.052 9.25c.897-1.967 3.424-9.092 3.424-9.092s-4.81 6.446-7.253 10.516c.978-3.256 1.548-8.14 6.03-11.871-4.074 1.967-10.35 7.802-10.105 15.196-1.469-1.764-1.06-7.937-1.06-7.937s-3.667 2.85-2.445 13.84c-1.303-1.358-2.852-13.026-2.852-13.026s-2.743 2.08-2.417 8.683c-3.607-4.1-13.081-28.513 19.45-37.087 0 0 19.61-4.304 25.587 10.086 6.874 16.54 1.949 27.223-3.095 32.02 1.14-4.341 2.2-7.868 1.547-9.836-1.22 3.867-4.971 4.681-4.971 4.681s4.564-5.36 4.238-8.344c-3.424 4.546-7.498 5.29-7.905 5.156 6.193-6.851 6.193-10.041 5.948-12.484-2.689 5.633-5.705 6.922-5.705 6.922s4.89-8.21 4.89-11.805c-3.34 5.019-3.993 5.224-5.379 6.377 2.448-3.19 2.229-8.66 1.034-11.014z" fill="#5A3017"/>
    </g>
    <defs>
        <clipPath id="a">
            <path fill="#fff" d="M0 0h118v118H0z"/>
        </clipPath>
    </defs>
</svg>
