<svg width="118" height="118" viewBox="0 0 118 118" fill="none" xmlns="http://www.w3.org/2000/svg">
    <path d="M93.666 89.954C89 81.123 59 75.58 59 75.58s-30 5.543-34.666 14.376C20.885 102.212 18 117.786 18 117.786h82s-1.949-16.7-6.334-27.833z" fill="#F1C9A5"/>
    <path d="M59 75.579s30 5.543 34.666 14.376c4.386 11.132 6.334 27.832 6.334 27.832H59V75.578z" fill="#E4B692"/>
    <path d="M67.167 57.62H50.833v27.337h16.334V57.62z" fill="#F1C9A5"/>
    <path d="M67.167 57.62H59v27.337h8.167V57.62z" fill="#E4B692"/>
    <path opacity=".1" d="M50.833 70.287c1.469 4.217 7.397 6.634 11.751 6.634 1.575 0 3.107-.264 4.583-.747V57.62H50.833v12.667z" fill="#DDAC8C"/>
    <path d="M80 40.371c0-17.074-9.402-26.783-21-26.783s-21 9.71-21 26.783c0 22.966 9.402 30.917 21 30.917 11.597 0 21-8.907 21-30.916z" fill="#F1C9A5"/>
    <path d="M76.803 52.212c-3.807-.4-6.377-4.5-5.732-9.157.637-4.66 4.242-8.12 8.051-7.724 3.805.396 6.371 4.496 5.729 9.156-.639 4.661-4.241 8.118-8.048 7.724z" fill="#E4B692"/>
    <path d="M33.298 44.489c-.643-4.66 1.924-8.76 5.727-9.156 3.811-.398 7.416 3.063 8.055 7.724.642 4.655-1.93 8.758-5.734 9.155-3.808.393-7.41-3.064-8.048-7.724z" fill="#F1C9A5"/>
    <path d="M80 40.371c0-17.074-9.402-26.783-21-26.783v57.7c11.597 0 21-8.907 21-30.916z" fill="#E4B692"/>
    <path d="M93.666 89.954c-2.726-5.157-14.082-9.19-23.065-11.655L59 91.559l-11.601-13.26c-8.983 2.464-20.34 6.497-23.065 11.655C20.885 102.212 18 117.787 18 117.787h82s-1.949-16.7-6.334-27.833z" fill="#3595BB"/>
    <path d="M41.379 48.544S56.214 38.422 57.96 32.837c-.175 5.06 0 9.598 0 9.598s14.487-14.31 13.09-26.005c-16.406-8.727-29.147 1.396-32.115 6.108-2.968 4.712-3.666 17.804 2.444 26.006z" fill="#262421"/>
    <path d="M68.955 21.142s6.808 8.204 8.204 24.61c4.887-7.157 10.123-27.927-6.109-29.322-1.397 2.617-2.095 4.712-2.095 4.712z" fill="#262421"/>
    <path d="M73.998 94.347l-9.077-8.438-5.936 5.648 9.865-14.084s3.217.356 4.361 3.86c.358 5.508.787 13.014.787 13.014z" fill="#fff"/>
    <path d="M55.792 117.788H59v-26.23l-3.208-3.039v29.269z" fill="#27AAE1"/>
    <path d="M43.972 94.347l9.077-8.438 5.936 5.648-9.865-14.084s-3.217.356-4.361 3.86c-.358 5.508-.787 13.014-.787 13.014z" fill="#fff"/>
</svg>
