<svg width="118" height="118" viewBox="0 0 118 118" fill="none" xmlns="http://www.w3.org/2000/svg">
    <path d="M93.666 89.992C89 81.159 59 75.616 59 75.616s-30 5.543-34.666 14.376C20.885 102.25 18 117.825 18 117.825h82s-1.949-16.7-6.334-27.833z" fill="#F1C9A5"/>
    <path d="M59 75.616s30 5.543 34.666 14.376c4.386 11.133 6.334 27.833 6.334 27.833H59V75.616z" fill="#E4B692"/>
    <path d="M67.167 57.659H50.833v27.336h16.334V57.659z" fill="#F1C9A5"/>
    <path d="M67.167 57.659H59v27.336h8.167V57.659z" fill="#E4B692"/>
    <path opacity=".1" d="M50.833 70.325c1.469 4.217 7.397 6.634 11.751 6.634 1.575 0 3.107-.264 4.583-.747V57.658H50.833v12.667z" fill="#DDAC8C"/>
    <path d="M80 40.409c0-17.074-9.402-26.783-21-26.783s-21 9.709-21 26.783c0 22.966 9.402 30.917 21 30.917 11.597 0 21-8.908 21-30.917z" fill="#F1C9A5"/>
    <path d="M76.803 52.249c-3.807-.399-6.377-4.5-5.733-9.156.637-4.66 4.242-8.12 8.051-7.724 3.805.396 6.371 4.496 5.729 9.156-.638 4.661-4.24 8.118-8.047 7.724z" fill="#E4B692"/>
    <path d="M33.298 44.526c-.643-4.66 1.924-8.76 5.727-9.156 3.811-.397 7.416 3.063 8.055 7.724.642 4.656-1.93 8.758-5.734 9.156-3.808.393-7.41-3.064-8.048-7.724z" fill="#F1C9A5"/>
    <path d="M80 40.409c0-17.074-9.402-26.783-21-26.783v57.7c11.597 0 21-8.908 21-30.917z" fill="#E4B692"/>
    <path d="M38.801 46.066s2.888-5.551 4.12-16.22c8.713 8.279 18.978 9.604 32.546 0 .334 7.779 2.609 12.631 5.276 16.22 1.641-13.441 5.266-20.066 4.049-27.13C75.749 20.432 72.565 13 58.999 13c-13.568 0-16.587 7.149-25.018 6.51.001 8.393 4.019 12.865 4.82 26.556z" fill="#265A68"/>
    <path d="M93.666 89.992c-2.99-5.66-16.375-9.966-25.61-12.331-.359 4.69-4.272 8.389-9.056 8.389-4.783 0-8.696-3.697-9.056-8.39-9.235 2.366-22.62 6.672-25.61 12.332C20.885 102.25 18 117.825 18 117.825h82s-1.949-16.7-6.334-27.833z" fill="#2D5972"/>
</svg>
