<svg width="118" height="118" viewBox="0 0 118 118" fill="none" xmlns="http://www.w3.org/2000/svg">
    <path d="M88.926 58.535C88.926 36.31 77.266 20 58.746 20 40.33 20 28.7 36.13 28.57 58.165c-.675-.153-1.376-.236-2.097-.236-5.232 0-9.473 4.241-9.473 9.473 0 4.298 2.864 7.925 6.787 9.084.091 5.152 4.294 9.302 9.468 9.302 1.581 0 3.071-.39 4.381-1.075 1.362 3.56 4.81 6.09 8.849 6.09 5.232 0 9.473-4.24 9.473-9.472 0-.765-.093-1.507-.264-2.22 12.025.46 24.714-1.805 30.19-6.797 7.198-6.562 3.042-7.795 3.042-13.78z" fill="#682234"/>
    <path d="M100.493 67.402c0-5.232-4.24-9.473-9.472-9.473-.722 0-1.423.083-2.098.236C88.794 36.13 77.163 20 58.747 20h-.026v59.17c1.028 0 2.056-.019 3.079-.058-.171.712-.264 1.454-.264 2.219 0 5.231 4.24 9.473 9.472 9.473 4.04 0 7.487-2.53 8.849-6.091 1.31.685 2.8 1.075 4.381 1.075 5.175 0 9.377-4.15 9.469-9.302 3.922-1.159 6.786-4.786 6.786-9.084z" fill="#581A2B"/>
    <path d="M66.474 69.306H51.02c0 20.335-9.937 18.496-9.937 18.496 0 12.921 13.956 17.019 17.27 18.223v.419s.145-.03.394-.098c.25.068.395.098.395.098v-.419c3.314-1.204 17.27-5.303 17.27-18.223 0 0-9.937 1.84-9.937-18.496z" fill="#F3D8B6"/>
    <path d="M66.474 69.305h-7.727v37.041c.248.068.394.098.394.098v-.419c3.315-1.204 17.27-5.303 17.27-18.223 0 0-9.937 1.84-9.937-18.497z" fill="#EEC8A2"/>
    <path d="M90.656 106.743v11.097H26.837v-11.097c0-8.3 3.922-15.538 10.258-19.343 1.648-.993 3.461-1.754 5.413-2.236 1.623-.406 3.342-.62 5.14-.62l11.099 6.548 11.1-6.547c1.796 0 3.515.213 5.139.62 1.951.481 3.764 1.242 5.413 2.235 6.335 3.805 10.257 11.042 10.257 19.343z" fill="#F3D8B6"/>
    <path d="M90.656 106.744v11.096h-31.91V91.092l9.82-5.791 1.28-.756c1.797 0 3.516.213 5.139.62 1.953.482 3.764 1.24 5.415 2.236 6.333 3.805 10.256 11.042 10.256 19.343z" fill="#EEC8A2"/>
    <path d="M58.993 52.986H41.266c.23 6.046 1.187 11.514 2.3 13.568 2.466 4.553 7.97 10.626 15.181 10.626 7.21 0 12.713-6.072 15.18-10.626 1.113-2.054 2.07-7.522 2.3-13.568H58.993z" fill="#F3DBC4"/>
    <path d="M58.994 52.985h-.273V77.18h.026c7.21 0 12.713-6.072 15.18-10.626 1.112-2.054 2.07-7.521 2.3-13.568H58.994z" fill="#EDCEAE"/>
    <path d="M71.153 93.075h-.806c-1.939 4.34-6.28 7.363-11.327 7.363-6.855 0-12.412-5.573-12.412-12.447 0-1.217.178-2.393.502-3.505-1.604.038-3.143.245-4.605.611-1.953.483-3.764 1.242-5.414 2.237-6.334 3.805-10.256 11.042-10.256 19.343v1.628H37.01l-.084.136v9.457h43.644v-9.457l-9.418-15.366z" fill="#AEC7EA"/>
    <path d="M90.659 106.677c0-8.3-3.923-15.537-10.257-19.342-1.65-.996-3.461-1.754-5.414-2.237-1.293-.324-2.648-.522-4.054-.59.321 1.105.497 2.274.497 3.484 0 6.874-5.557 12.447-12.411 12.447-.091 0-.18-.005-.27-.007v17.466H80.57v-9.456l-.083-.137h10.17v-1.628z" fill="#96B3D4"/>
</svg>
