<svg width="118" height="118" viewBox="0 0 118 118" fill="none" xmlns="http://www.w3.org/2000/svg">
    <path d="M46.874 76.444h22.602S81.08 64.995 80.632 50.139c-.449-14.856-14.64-23.967-27.336-23.967-12.696.001-22.106 31.235-6.422 50.272z" fill="#A25A34"/>
    <path d="M89.814 92.725c-4.181-7.916-31.068-12.884-31.068-12.884s-26.887 4.968-31.07 12.884C24.587 103.711 22 117.67 22 117.67h73.491s-1.747-14.967-5.677-24.945z" fill="#F1C9A5"/>
    <path d="M58.745 79.841s26.887 4.968 31.07 12.884c3.93 9.978 5.676 24.945 5.676 24.945H58.746V79.841z" fill="#E4B692"/>
    <path d="M66.065 63.747H51.426v24.499h14.64v-24.5z" fill="#F1C9A5"/>
    <path d="M66.065 63.747h-7.32v24.499h7.32v-24.5z" fill="#E4B692"/>
    <path opacity=".1" d="M51.426 75.1c1.317 3.779 6.63 5.945 10.532 5.945 1.411 0 2.784-.237 4.107-.67V63.747H51.426v11.352z" fill="#DDAC8C"/>
    <path d="M77.567 48.288c0-15.302-8.427-24.004-18.821-24.004-10.395 0-18.821 8.702-18.821 24.004 0 15.302 8.426 27.709 18.82 27.709s18.822-12.406 18.822-27.71z" fill="#F1C9A5"/>
    <path d="M74.701 58.897c-3.412-.38-5.715-4.287-5.137-8.722.57-4.44 3.802-7.735 7.216-7.357 3.41.378 5.71 4.283 5.134 8.722-.573 4.439-3.8 7.732-7.213 7.357z" fill="#E4B692"/>
    <path d="M35.71 51.54c-.576-4.44 1.725-8.344 5.133-8.722 3.415-.378 6.647 2.918 7.22 7.357.576 4.435-1.73 8.343-5.14 8.722-3.412.375-6.64-2.918-7.212-7.357z" fill="#F1C9A5"/>
    <path d="M77.566 48.288c0-15.302-8.426-24.004-18.82-24.004v51.713c10.393 0 18.82-12.406 18.82-27.71z" fill="#E4B692"/>
    <path d="M89.814 92.724c-.249-.472-.584-.935-.986-1.386-4.563 6.006-16.307 10.283-30.082 10.283h-.001c-13.774 0-25.52-4.276-30.082-10.282-.401.45-.736.913-.986 1.385C24.586 103.71 22 117.67 22 117.67h73.491s-1.747-14.967-5.677-24.945z" fill="#01561E"/>
    <path d="M50.88 32.025c3.124 5.638 10.955 8.85 16.604 13.086 9.89 7.415 5.42 23.81 1.991 31.334 12.43-7.225 21.542-19.345 16.97-38.986-4.573-19.642-20.181-28-36.327-21.035-13.286-3.484-26.923 16.693-25.351 34.942 1.57 18.248 22.107 25.078 22.107 25.078s-12.249-27.186 4.006-44.42z" fill="#D1874A"/>
</svg>
