<svg width="118" height="118" viewBox="0 0 118 118" fill="none" xmlns="http://www.w3.org/2000/svg">
    <g clip-path="url(#a)">
        <path d="M93.667 91.285C89.001 82.7 59.001 77.311 59.001 77.311s-30 5.388-34.666 13.974c-3.449 11.916-6.334 27.055-6.334 27.055h82s-1.949-16.233-6.334-27.055z" fill="#F1C9A5"/>
        <path d="M59.001 77.311s30 5.388 34.666 13.974c4.386 10.822 6.334 27.055 6.334 27.055h-41V77.311z" fill="#E4B692"/>
        <path d="M67.168 59.856H50.834v26.571h16.334V59.856z" fill="#F1C9A5"/>
        <path d="M67.168 59.856h-8.167v26.571h8.167V59.856z" fill="#E4B692"/>
        <path opacity=".1" d="M50.834 72.168c1.469 4.1 7.397 6.449 11.751 6.449 1.575 0 3.107-.257 4.583-.726V59.856H50.834v12.312z" fill="#DDAC8C"/>
        <path d="M93.667 91.286c-2.726-5.014-14.082-8.934-23.065-11.33-.351 5.939-5.402 10.653-11.601 10.653-6.198 0-11.249-4.714-11.601-10.653-8.983 2.396-20.34 6.316-23.066 11.33C20.885 103.2 18 118.34 18 118.34h82c.001 0-1.948-16.233-6.333-27.054z" fill="#fff"/>
        <path d="M80.001 43.09c0-16.597-9.402-26.035-21-26.035s-21 9.438-21 26.034c0 6.953 2.188 22.348 5.924 25.486 2.565 2.215 10.938 6.01 15.033 6.01h.001l.043-.002.041.002h.002c4.096 0 12.469-3.794 15.033-6.01 3.884-3.987 5.923-19.104 5.923-25.486z" fill="#F1C9A5"/>
        <path d="M59.002 74.583l.041.002h.002c4.096 0 12.469-3.794 15.033-6.01 3.884-3.988 5.923-19.104 5.923-25.486 0-16.596-9.402-26.034-21-26.034l.001 57.528z" fill="#E4B692"/>
        <path d="M76.804 54.598c-3.807-.387-6.377-4.374-5.732-8.9.637-4.53 4.242-7.893 8.051-7.508 3.805.385 6.371 4.37 5.729 8.9-.639 4.53-4.241 7.891-8.048 7.508z" fill="#E4B692"/>
        <path d="M33.299 47.091c-.643-4.53 1.924-8.515 5.727-8.9 3.81-.386 7.416 2.977 8.055 7.508.643 4.526-1.93 8.513-5.734 8.9-3.808.382-7.41-2.978-8.048-7.508z" fill="#F1C9A5"/>
        <path d="M24.335 91.285c-3.449 11.916-6.334 27.055-6.334 27.055h29.777c-5.054-21.681-5.249-36.96-5.249-36.989-7.82 2.407-15.945 5.797-18.194 9.934zM93.667 91.285c4.67 11.211 6.334 27.055 6.334 27.055H70.223c5.054-21.681 5.249-36.96 5.249-36.989 7.821 2.407 15.946 5.797 18.195 9.934z" fill="#FB6020"/>
        <path d="M39.286 54.139s3.067 10.042 6.388 11.747h2.683l3.32-4.573 7.281-1.973v15.246h-9.453l-9.452-8.251-.767-12.196zM78.673 54.139s-3.067 10.042-6.388 11.747h-2.683l-3.32-4.573-7.281-1.973v15.246h9.453l9.452-8.251.767-12.196z" fill="#915F2C"/>
        <path d="M62.369 64.361s-.5-2.164-3.417-2.164c-2.667 0-3.417 2.164-3.417 2.164h6.834z" fill="#fff"/>
        <path d="M38.034 38.238s2.783.562 4.581 2.594c-.317-3.555-1.02-15.363 3.42-18.326 4.44-2.962 6.517.128 12.966.128V14H48.519c-2.732 0-11.401 1.27-11.401 9.226-.001 7.957.916 15.012.916 15.012z" fill="#915F2C"/>
        <path d="M79.967 38.238s-2.783.562-4.581 2.594c.317-3.555 1.02-15.363-3.42-18.326-4.439-2.962-6.517.128-12.966.128V14h10.482c2.732 0 11.401 1.27 11.401 9.226.001 7.957-.916 15.012-.916 15.012z" fill="#915F2C"/>
    </g>
    <defs>
        <clipPath id="a">
            <path fill="#fff" d="M0 0h118v118H0z"/>
        </clipPath>
    </defs>
</svg>
