<svg width="118" height="118" viewBox="0 0 118 118" fill="none" xmlns="http://www.w3.org/2000/svg">
    <path d="M33.98 52.525c0 11.069-6.073 11.355-5.64 18.685.48 8.117 6.824 8.136 6.824 13.716 0 5.579-5.834 11.834-.665 17.842h24.945v-67.69L33.98 52.526z" fill="#2E576D"/>
    <path d="M84.886 52.158c0 11.07 6.075 11.355 5.642 18.685-.48 8.117-6.825 8.136-6.825 13.716 0 5.579 5.834 11.834.666 17.842H59.423V34.713l25.463 17.445z" fill="#2E576D"/>
    <path d="M59.434 68.923c15.343 0 27.78-12.519 27.78-27.962C87.215 25.52 74.778 13 59.435 13c-15.342 0-27.78 12.519-27.78 27.961 0 15.443 12.438 27.962 27.78 27.962z" fill="#2E576D"/>
    <path d="M91.931 91.787c-4.374-8.28-32.497-13.477-32.497-13.477s-28.122 5.197-32.496 13.477C23.705 103.278 21 117.878 21 117.878h76.869s-1.827-15.655-5.938-26.091z" fill="#F1C9A5"/>
    <path d="M59.434 78.31s28.123 5.197 32.497 13.477c4.112 10.436 5.938 26.091 5.938 26.091H59.434V78.311z" fill="#E4B692"/>
    <path d="M67.09 61.477H51.778v25.625H67.09V61.477z" fill="#F1C9A5"/>
    <path d="M67.09 61.477h-7.656v25.625h7.656V61.477z" fill="#E4B692"/>
    <path opacity=".1" d="M51.778 73.351c1.378 3.954 6.934 6.22 11.016 6.22 1.477 0 2.913-.248 4.296-.701V61.477H51.778v11.874z" fill="#DDAC8C"/>
    <path d="M79.12 45.308c0-16.006-8.814-25.107-19.686-25.107s-19.686 9.101-19.686 25.107c0 16.005 8.814 28.982 19.686 28.982S79.12 61.314 79.12 45.308z" fill="#F1C9A5"/>
    <path d="M76.123 56.405c-3.569-.398-5.978-4.484-5.373-9.123.597-4.643 3.976-8.09 7.547-7.696 3.567.396 5.972 4.48 5.37 9.123-.598 4.643-3.975 8.088-7.544 7.696z" fill="#E4B692"/>
    <path d="M35.34 48.71c-.602-4.644 1.804-8.729 5.37-9.124 3.57-.394 6.951 3.053 7.55 7.696.602 4.639-1.809 8.726-5.375 9.123-3.57.392-6.946-3.053-7.544-7.696z" fill="#F1C9A5"/>
    <path d="M79.12 45.308c0-16.006-8.814-25.107-19.686-25.107V74.29c10.872 0 19.686-12.976 19.686-28.982z" fill="#E4B692"/>
    <path d="M80.745 43.501l.002-.14c0-12.417-8.405-25.519-20.17-25.519-11.767 0-22.434 13.102-22.434 25.518l.002.14h42.6v.001z" fill="#2E576D"/>
    <path d="M97.869 117.879s-1.826-15.655-5.938-26.091c-2.399-4.542-11.937-8.152-20.066-10.489l-12.46 9.78-12.96-9.619c-8 2.341-17.164 5.891-19.507 10.329C23.705 103.28 21 117.88 21 117.88h76.869v-.001z" fill="#FA582A"/>
</svg>
