<svg width="118" height="118" viewBox="0 0 118 118" fill="none" xmlns="http://www.w3.org/2000/svg">
    <path d="M89.414 86.26c-6.075-2.174-20-3.819-20-26.482H48.76c0 22.663-13.925 24.308-20 26.482 0 15.416 25.655 15.889 29.513 17.326v.5s.3-.061.814-.221c.514.16.814.221.814.221v-.5c3.858-1.436 29.513-1.91 29.513-17.326z" fill="#F3D8B6"/>
    <path d="M69.413 59.778H59.128v44.099c.487.151.773.209.773.209v-.5c3.858-1.436 29.513-1.91 29.513-17.326-6.075-2.174-20-3.82-20-26.482z" fill="#EEC8A2"/>
    <path d="M59.088 67.183c-8.935 0-15.755-7.524-18.81-13.166-3.056-5.642-5.17-22.6 1.412-31.534 6.446-8.749 17.398-7.758 17.398-7.758s10.95-.99 17.397 7.758c6.582 8.934 4.467 25.892 1.41 31.534-3.056 5.642-9.874 13.166-18.807 13.166z" fill="#F3DBC4"/>
    <path d="M76.485 22.483c-6.227-8.45-16.653-7.815-17.357-7.761V67.18c8.913-.023 15.716-7.531 18.768-13.165 3.056-5.642 5.171-22.6-1.411-31.533z" fill="#EDCEAE"/>
    <path d="M70.37 17.435S62.421 6.756 57.448 9.43c-12.706 6.83-14.39 5.976-17.241 6.966-6.913 2.401-7.094-.844-6.223 4.484 2.89 17.677-.181 25.819 5.194 19.248 5.376-6.57 7.168-5.019 20.852-6.512 13.684-1.494 4.965-7.604 12.132-2.662 7.168 4.94 8.11 13.906 9.304 13.906 1.195 0 3.853-17.114 2.045-22.426-3.86-11.339-13.14-5-13.14-5z" fill="#682234"/>
    <path d="M83.511 22.434c-3.86-11.339-13.14-4.999-13.14-4.999s-6.345-8.522-11.243-8.433V33.71c.297-.031.593-.061.902-.095 13.684-1.493 4.965-7.603 12.133-2.662 7.167 4.941 8.11 13.906 9.303 13.906 1.195 0 3.854-17.114 2.045-22.426z" fill="#581A2B"/>
    <path d="M98.133 104.31l-.04 13.239H20l.04-13.239c0-9.904 5.656-18.538 13.215-23.078 1.967-1.185 7.71-2.093 10.038-2.667 1.937-.484 15.83 13.592 15.83 13.592S73.92 78.08 75.858 78.565c2.328.574 7.095 1.482 9.061 2.667 7.56 4.54 13.214 13.174 13.214 23.078z" fill="#66A299"/>
    <path d="M84.884 81.232c-1.967-1.185-6.734-2.092-9.062-2.667-1.937-.484-16.7 13.592-16.7 13.592l-.03 25.392h39.006V104.31c0-9.904-5.655-18.538-13.214-23.078z" fill="#5A9291"/>
    <path d="M85.92 104.239H68.995v3.688H85.92v-3.688z" fill="#B7CAE9"/>
    <path d="M84.075 106.626H70.84v8.461h13.234v-8.461z" fill="#B7CAE9"/>
    <path d="M72.754 41.403h-9.011c-.386 0-.767.08-1.117.232l-3.539 1.26-3.539-1.26c-.35-.153-.73-.232-1.116-.232h-9.01c-1.794 0-2.413 3.084-2.413 3.084 0 4.078 2.991 7.384 7.731 7.384 2.89 0 5.666-3.072 7.371-5.559h1.953c1.705 2.487 4.48 5.56 7.37 5.56 4.74 0 7.732-3.307 7.732-7.386 0 0-.62-3.083-2.412-3.083z" fill="#687385"/>
    <path d="M82.377 46.307c1.094-2.889.612-5.75-1.076-6.39-1.69-.64-3.945 1.184-5.04 4.072-1.094 2.89-.613 5.75 1.076 6.39 1.689.64 3.945-1.184 5.04-4.072z" fill="#EDCEAE"/>
    <path d="M35.795 46.306c1.094 2.889 3.35 4.712 5.04 4.072 1.688-.64 2.17-3.5 1.075-6.39-1.094-2.888-3.35-4.71-5.04-4.07-1.688.639-2.17 3.5-1.075 6.388z" fill="#F3DBC4"/>
</svg>
