<svg width="118" height="118" viewBox="0 0 118 118" fill="none" xmlns="http://www.w3.org/2000/svg">
    <g clip-path="url(#a)">
        <path d="M90.923 92.976c-4.251-8.046-31.578-13.095-31.578-13.095S32.02 84.931 27.77 92.976C24.63 104.142 22 118.33 22 118.33h74.692s-1.774-15.212-5.77-25.353z" fill="#F1C9A5"/>
        <path d="M59.346 79.881s27.326 5.05 31.577 13.095c3.995 10.141 5.769 25.353 5.769 25.353H59.346V79.881z" fill="#E4B692"/>
        <path d="M66.785 63.524H51.907v24.9h14.878v-24.9z" fill="#F1C9A5"/>
        <path d="M66.785 63.524h-7.44v24.9h7.44v-24.9z" fill="#E4B692"/>
        <path opacity=".1" d="M51.907 75.062c1.339 3.84 6.738 6.043 10.704 6.043 1.435 0 2.83-.24 4.174-.68V63.523H51.907v11.538z" fill="#DDAC8C"/>
        <path d="M78.474 47.813c0-15.553-8.564-24.397-19.129-24.397-10.563 0-19.127 8.844-19.127 24.397 0 20.918 8.564 28.16 19.127 28.16 10.566 0 19.13-8.114 19.13-28.16z" fill="#F1C9A5"/>
        <path d="M78.474 47.813c0-15.553-8.564-24.397-19.129-24.397-10.563 0-19.127 8.844-19.127 24.397 0 20.918 8.564 28.16 19.127 28.16 10.566 0 19.13-8.114 19.13-28.16z" fill="#F1C9A5"/>
        <path d="M35.935 51.562c-.586-4.245 1.752-7.98 5.217-8.341 3.47-.361 6.755 2.79 7.336 7.036.585 4.24-1.758 7.976-5.224 8.34-3.467.358-6.747-2.79-7.329-7.035z" fill="#F1C9A5"/>
        <path d="M78.474 47.813c0-15.553-8.564-24.397-19.129-24.397v52.558c10.566 0 19.13-8.115 19.13-28.161z" fill="#E4B692"/>
        <path d="M90.923 92.976c-2.724-5.156-14.916-9.078-23.328-11.232-.328 4.273-3.892 7.641-8.25 7.641-4.356 0-7.92-3.368-8.248-7.641-8.412 2.154-20.604 6.076-23.328 11.232C24.63 104.142 22 118.33 22 118.33h74.692s-1.774-15.212-5.77-25.353z" fill="#102F41"/>
        <path d="M43.454 66.324c4.16 7.066 8.304 8.16 8.304 8.16l1.256 4.07h-3.216l-.783-1.755h-1.726l-.628-2.156-1.709.719-.407-2.395h-1.57l-.548-1.997-1.177.56-1.176-1.837-1.647-.878.784-2.715h-1.96l.08-2.874-1.492.48-.549-2.555-2.51-.958 2.196-2.236-1.098-.4 1.176-2.074-.862-.4-.158-2.475-2.509-.479 1.412-2.235-1.726-2.715 2.04-1.119-1.098-2.713.627-2.556-2.353-1.916 3.294-.319v-2.395l.942-2.075-.942-1.757 1.726-1.437-1.726-1.438 1.882-1.916v-1.117l1.726-1.437-.784-2.236 3.136.639.157-3.833 2.353.799.784-1.597 2.667.32s-.627-1.278.47-1.278c1.098 0 3.765 1.119 3.765 1.119L51.288 17l3.137 2.236L55.524 17l2.039 2.395L59.476 17v21.717c-2.48-.213-3.796-.213-9.233-2.343-1.882 1.278-7.947 10.008-7.947 10.859 0 .851-1.047 9.581-1.047 9.581l-1.09-5.206c0-.004 1.087 10.966 3.295 14.716zM74.87 66.324c-3.997 7.066-7.979 8.16-7.979 8.16l-1.205 4.07H68.775l.753-1.755h1.659l.602-2.156 1.643.719.391-2.395h1.509l.526-1.997 1.13.56 1.13-1.837 1.583-.878-.753-2.715h1.883l-.076-2.874 1.433.48.527-2.555 2.411-.958-2.11-2.236 1.055-.4-1.13-2.074.829-.4.151-2.475 2.41-.479-1.356-2.235 1.658-2.715-1.959-1.119 1.054-2.713-.602-2.556 2.261-1.916-3.164-.319v-2.395l-.905-2.075.905-1.757-1.659-1.437 1.659-1.438-1.809-1.916v-1.117l-1.658-1.437.755-2.236-3.014.639-.152-3.833-2.26.799-.754-1.597-2.563.32s.603-1.278-.45-1.278c-1.056 0-3.619 1.119-3.619 1.119L67.343 17l-3.014 2.236L63.274 17l-1.96 2.395L59.477 17v21.717c2.38-.213 3.647-.213 8.87-2.343 1.809 1.278 7.636 10.008 7.636 10.859 0 .851 1.005 9.581 1.005 9.581l1.05-5.206c0-.004-1.045 10.966-3.167 14.716z" fill="#231F20"/>
        <path d="M35.935 51.562c-.586-4.245 1.752-7.98 5.217-8.34 3.47-.362 6.755 2.79 7.336 7.035.585 4.241-1.758 7.977-5.224 8.34-3.467.358-6.747-2.79-7.329-7.035z" fill="#F1C9A5"/>
        <path d="M75.564 58.596c-3.469-.362-5.809-4.099-5.222-8.34.58-4.244 3.864-7.396 7.332-7.035 3.466.362 5.804 4.096 5.219 8.34-.582 4.246-3.862 7.394-7.33 7.035z" fill="#E4B692"/>
    </g>
    <defs>
        <clipPath id="a">
            <path fill="#fff" d="M0 0h118v118H0z"/>
        </clipPath>
    </defs>
</svg>
