<svg width="118" height="118" viewBox="0 0 118 118" fill="none" xmlns="http://www.w3.org/2000/svg">
    <g clip-path="url(#a)">
        <path d="M59.5 70.419c14.254 0 25.81-12.215 25.81-27.282 0-15.068-11.556-27.282-25.81-27.282-14.255 0-25.81 12.214-25.81 27.282 0 15.067 11.555 27.282 25.81 27.282z" fill="#EC9A1C"/>
        <path d="M91.206 92.73C86.94 84.65 59.5 79.58 59.5 79.58s-27.44 5.07-31.708 13.15c-3.154 11.211-5.547 25.457-5.547 25.457H96.41s-1.192-15.275-5.204-25.457z" fill="#F1C9A5"/>
        <path d="M59.5 79.58s27.439 5.07 31.706 13.15c4.012 10.183 5.203 25.457 5.203 25.457H59.5V79.581z" fill="#E4B692"/>
        <path d="M66.97 63.155H52.03v25.003h14.94V63.155z" fill="#F1C9A5"/>
        <path d="M66.97 63.155H59.5v25.003h7.47V63.155z" fill="#E4B692"/>
        <path opacity=".1" d="M52.03 74.741c1.344 3.856 6.767 6.068 10.749 6.068 1.44 0 2.842-.24 4.191-.683V63.154H52.03v11.586z" fill="#DDAC8C"/>
        <path d="M78.708 47.38c0-15.618-8.6-24.497-19.208-24.497-10.607 0-19.208 8.88-19.208 24.497 0 15.617 8.6 28.277 19.208 28.277 10.608 0 19.208-12.66 19.208-28.277z" fill="#F1C9A5"/>
        <path d="M76.469 58.207c-3.482-.387-5.833-4.375-5.242-8.902.581-4.53 3.88-7.894 7.363-7.508 3.48.385 5.828 4.37 5.24 8.901-.584 4.532-3.878 7.891-7.361 7.51z" fill="#E4B692"/>
        <path d="M35.078 50.698c-.588-4.53 1.758-8.515 5.236-8.901 3.487-.386 6.784 2.977 7.368 7.508.588 4.527-1.766 8.514-5.245 8.902-3.482.381-6.777-2.978-7.36-7.509z" fill="#F1C9A5"/>
        <path d="M78.708 47.38c0-15.618-8.6-24.497-19.208-24.497v52.774c10.607 0 19.208-12.66 19.208-28.277z" fill="#E4B692"/>
        <path d="M59.5 30.98c7.174 0 12.99-5.816 12.99-12.99S66.674 5 59.5 5s-12.99 5.816-12.99 12.99 5.816 12.99 12.99 12.99z" fill="#EC9A1C"/>
        <path d="M48.087 82.153v.035" stroke="#fff" stroke-width="1.943" stroke-linecap="round" stroke-linejoin="round"/>
        <path d="M48.304 84.41c1.052 5.376 5.788 9.432 11.475 9.432 6.067 0 11.058-4.624 11.635-10.542" stroke="#fff" stroke-width="1.943" stroke-linecap="round" stroke-linejoin="round" stroke-dasharray="0.07 2.6"/>
        <path d="M71.47 82.189v-.036" stroke="#fff" stroke-width="1.943" stroke-linecap="round" stroke-linejoin="round"/>
        <path d="M59.5 104.229c-13.04 0-24.778-2.572-32.99-6.678-2.557 10.086-4.51 20.635-4.51 20.635h75s-1.306-11.182-4.197-20.789c-8.224 4.196-20.098 6.832-33.303 6.832z" fill="#92278F"/>
        <path d="M37.568 85.878v17.14h2.724V84.799c-.927.345-1.84.705-2.724 1.079zM83.92 87.009c-.87-.426-1.781-.837-2.725-1.23v17.239h2.726v-16.01z" fill="#92278F"/>
        <path d="M40.315 41.795s21.18.008 26.656-8.224c4.56 6.86 11.737 8.245 11.737 8.245l-.458-14.19-12.893-7.545-23.978 4.344-1.064 17.37z" fill="#EC9A1C"/>
        <path d="M66.97 77.475H52.03v3.768h14.94v-3.768z" fill="#92278F"/>
        <path d="M79.164 55.98h-1.829v1.83h1.83v-1.83zM42.294 55.98h-1.829v1.83h1.829v-1.83z" fill="#fff"/>
    </g>
    <defs>
        <clipPath id="a">
            <path fill="#fff" d="M0 0h118v118H0z"/>
        </clipPath>
    </defs>
</svg>
