<svg width="118" height="118" viewBox="0 0 118 118" fill="none" xmlns="http://www.w3.org/2000/svg">
    <g clip-path="url(#a)">
        <path d="M93.666 91.354C89 82.767 59 77.379 59 77.379s-30 5.388-34.666 13.975C20.885 103.27 18 118.41 18 118.41h82s-1.949-16.234-6.334-27.056z" fill="#F1C9A5"/>
        <path d="M59 77.38s30 5.388 34.666 13.974C98.052 102.176 100 118.41 100 118.41H59V77.38z" fill="#E4B692"/>
        <path d="M67.167 59.922H50.833v26.573h16.334V59.922z" fill="#F1C9A5"/>
        <path d="M67.167 59.922H59v26.573h8.167V59.922z" fill="#E4B692"/>
        <path opacity=".1" d="M50.833 72.235c1.469 4.1 7.397 6.45 11.751 6.45 1.575 0 3.107-.257 4.583-.727V59.922H50.833v12.313z" fill="#DDAC8C"/>
        <path d="M80 43.154c0-16.597-9.402-26.035-21-26.035s-21 9.438-21 26.035C38 65.48 47.402 73.21 59 73.21c11.597 0 21-8.66 21-30.055z" fill="#F1C9A5"/>
        <path d="M76.803 54.664c-3.807-.387-6.377-4.374-5.732-8.9.637-4.53 4.242-7.894 8.051-7.509 3.805.385 6.371 4.37 5.729 8.9-.639 4.532-4.241 7.892-8.048 7.51z" fill="#E4B692"/>
        <path d="M33.298 47.157c-.643-4.53 1.924-8.516 5.727-8.9 3.81-.386 7.416 2.977 8.055 7.508.643 4.526-1.93 8.513-5.734 8.9-3.808.382-7.41-2.978-8.048-7.508z" fill="#F1C9A5"/>
        <path d="M80 43.154c0-16.597-9.402-26.035-21-26.035v56.09c11.597 0 21-8.66 21-30.055z" fill="#E4B692"/>
        <path d="M77.89 57.066c-1.13 3.087-3.041 6.799-6.494 6.799-4.316 0-7.403-3.41-12.354-3.41l-.041.002-.043-.002c-4.95 0-8.036 3.41-12.354 3.41-3.453 0-5.363-3.712-6.493-6.8l-.978-5.946v7.116s1.641 8.382 4.79 10.407c2.565 2.215 10.938 6.01 15.033 6.01h.001L59 74.65l.041.002h.002c4.096 0 12.469-3.794 15.033-6.01 3.149-2.025 4.79-10.407 4.79-10.407V51.12l-.976 5.947zM48.831 20.294s3.9 15.347 25.632 23.11c-2.044-3.43-2.415-7.583-2.415-7.583s3.529 3.611 9.286 6.5c3.158-6.138 6.873-15.346-1.485-20.401-8.358-5.056-28.232-14.085-31.018-1.626z" fill="#303030"/>
        <path d="M41.588 42.14s1.613-17.52 8.328-21.395c-5.728-2.43-14.457 4.965-13.529 9.479.929 4.514 5.201 11.916 5.201 11.916z" fill="#303030"/>
        <path d="M93.666 91.354c-2.726-5.014-14.082-8.935-23.065-11.331-.352 5.94-5.402 10.654-11.601 10.654-6.198 0-11.249-4.715-11.6-10.654-8.983 2.396-20.34 6.317-23.066 11.33C20.885 103.27 18 118.41 18 118.41h82s-1.949-16.234-6.334-27.056z" fill="#FB621E"/>
        <path opacity=".2" d="M46.727 82.94c.372 5.939 5.715 10.653 12.272 10.653 6.558 0 11.9-4.714 12.272-10.654 8.233 2.076 18.34 5.297 22.772 9.381-.124-.327-.25-.65-.379-.966-2.726-5.014-14.082-8.935-23.065-11.331-.352 5.94-5.402 10.654-11.601 10.654-6.198 0-11.249-4.715-11.6-10.654-8.983 2.396-20.34 6.317-23.066 11.33l-.243.85c4.5-4.027 14.484-7.209 22.638-9.264z" fill="#E53D0C"/>
        <path d="M43.983 80.98C45.121 88.058 51.401 93.479 59 93.479c7.599 0 13.879-5.42 15.017-12.497-1.161-.343-2.307-.662-3.416-.957-.352 5.94-5.402 10.654-11.601 10.654-6.198 0-11.249-4.715-11.6-10.654-1.11.295-2.256.614-3.417.957z" fill="#E53D0C"/>
        <path d="M62.417 65.804s-.5-2.164-3.417-2.164c-2.667 0-3.417 2.164-3.417 2.164h6.834z" fill="#fff"/>
    </g>
    <defs>
        <clipPath id="a">
            <path fill="#fff" d="M0 0h118v118H0z"/>
        </clipPath>
    </defs>
</svg>
