<svg width="118" height="118" viewBox="0 0 118 118" fill="none" xmlns="http://www.w3.org/2000/svg">
    <path d="M65.117 20.715s-5.794-6.472-15.09-2.332c-6.495 2.893-7.9 4.788-13.444 6.051-5.852 1.334-9.773 7.153-7.503 14 1.888 5.694 3.48 13.19 2.241 16.393-1.633 4.221-.033 7.479 5.56 11.448 5.594 3.97 14.508 7.856 14.508 7.856l16.227-1.134s19.935-3.786 18.5-13.989c-1.036-7.36-2.72-8.036 1.007-12.538 2.388-2.887 2.348-12.418-3.245-15.666-5.594-3.247-4.989-7.14-8.056-9.846-3.068-2.707-10.705-.243-10.705-.243z" fill="#3C2A20"/>
    <path d="M89.734 93.014c-4.177-7.908-31.032-12.87-31.032-12.87s-26.856 4.962-31.032 12.87C24.582 103.987 22 117.929 22 117.929h73.404s-1.744-14.95-5.67-24.915z" fill="#F1C9A5"/>
    <path d="M58.702 80.144s26.855 4.962 31.032 12.87c3.926 9.966 5.67 24.915 5.67 24.915H58.702V80.144z" fill="#E4B692"/>
    <path d="M66.013 64.069H51.391v24.47h14.622v-24.47z" fill="#F1C9A5"/>
    <path d="M66.013 64.069h-7.311v24.47h7.311v-24.47z" fill="#E4B692"/>
    <path opacity=".1" d="M51.391 75.408c1.316 3.774 6.622 5.939 10.52 5.939 1.41 0 2.782-.236 4.102-.67V64.07H51.391v11.339z" fill="#DDAC8C"/>
    <path d="M77.5 48.628c0-15.285-8.416-23.976-18.798-23.976-10.382 0-18.8 8.691-18.8 23.976 0 15.284 8.418 27.676 18.8 27.676 10.382 0 18.799-12.392 18.799-27.676z" fill="#F1C9A5"/>
    <path d="M77.5 48.628c0-15.285-8.416-23.976-18.798-23.976v51.652c10.382 0 18.799-12.392 18.799-27.676z" fill="#E4B692"/>
    <path d="M89.734 93.014c-1.401-2.653-5.36-4.972-9.995-6.887-2.332 9.454-10.864 16.466-21.037 16.466-10.173 0-18.706-7.012-21.037-16.466-4.635 1.914-8.594 4.233-9.995 6.887-3.088 10.973-5.67 24.915-5.67 24.915h73.404s-1.744-14.95-5.67-24.915z" fill="#BF0020"/>
    <path d="M47.532 82.662v.029" stroke="#fff" stroke-width="1.943" stroke-linecap="round" stroke-linejoin="round"/>
    <path d="M47.745 84.87c1.029 5.261 5.666 9.231 11.23 9.231 5.938 0 10.823-4.526 11.387-10.318" stroke="#fff" stroke-width="1.943" stroke-linecap="round" stroke-linejoin="round" stroke-dasharray="0.07 2.6"/>
    <path d="M70.416 82.69v-.028" stroke="#fff" stroke-width="1.943" stroke-linecap="round" stroke-linejoin="round"/>
    <path d="M61.844 24.9c-.335-.335-16.544-4.453-15.675 4.674.672 7.05-4.348 6.77-7.608 12.034-3.262 5.265-3.569 8.797-.396 13.22.283-3.321.395-7.9 7.444-13.22 7.05-5.32 6.826-7.894 5.931-11.363-.895-3.469 10.304-5.345 10.304-5.345z" fill="#3C2A20"/>
    <path d="M44.38 63.479c-8.22-4.948-6.824-12.497-6.524-16.263.354-4.419 4.854-5.787 10.157-8.97 5.303-3.18 1.752-4.767 3.873-10.07 2.121-5.303 13.92-3.414 13.92-3.414s-6.924.052-9.044 5.354c-2.122 5.303.885 6.893-4.42 10.075-5.302 3.181-8.023 3.173-9.278 7.424-1.306 4.423-4.844 7.732 1.315 15.864z" fill="#564036"/>
    <path d="M36.448 57.239c-8.22-4.948-5.25-10.02-4.95-13.787.354-4.42 3.251-5.288 8.555-8.469 5.302-3.181 3.023-3.727 5.144-9.03 2.122-5.302 13.875-1.767 13.875-1.767s-7.423-1.592-9.545 3.711c-2.122 5.305.32 6.103-4.42 10.075-3.359 2.817-9.525 2.999-9.278 7.425.31 5.542-5.922 6.892.62 11.842z" fill="#564036"/>
    <path d="M56.55 24.453c.337-.335 16.546-4.453 15.677 4.674-.672 7.05 4.347 6.77 7.608 12.034 3.262 5.264 3.569 8.797.395 13.22-.283-3.322-.395-7.9-7.445-13.22-7.048-5.32-6.825-7.894-5.93-11.363.896-3.47-10.304-5.345-10.304-5.345z" fill="#3C2A20"/>
    <path d="M74.713 62.143c8.22-5.39 5.25-10.917 4.95-15.021-.354-4.815-2.954-4.847-8.258-8.313-5.302-3.466-2.244-4.96-4.366-10.737-2.121-5.776-14.451-3.729-14.451-3.729s6.923.056 9.044 5.833c2.122 5.778-.884 7.512 4.42 10.977 5.302 3.466 8.925 3.275 9.278 8.089.303 4.104 5.923 7.508-.617 12.901z" fill="#564036"/>
    <path d="M82.202 60.596c8.311-5.5 5.31-11.134 5.005-15.32-.358-4.911-3.287-5.876-8.65-9.412-5.362-3.535-3.057-4.142-5.203-10.034-2.145-5.892-14.031-1.964-14.031-1.964s7.508-1.768 9.652 4.124c2.146 5.894-.324 6.781 4.469 11.196 3.397 3.129 9.633 3.332 9.383 8.25-.312 6.161 5.988 7.66-.625 13.16z" fill="#564036"/>
    <path d="M79.739 86.127s-7.78 3.173-6.576 10.926c-4.166-.303-13.118.64-14.461 5.54-3.133-4.351-10.464-6.7-14.855-5.899-.064-4.42-2.936-8.955-6.182-10.568-4.028 7.9-1.722 15.957-1.722 15.957s10.226 8.616 10.786 8.616c.56 0 21.595 3.693 21.595 3.693s14.045-4.589 14.129-5.036c.083-.447-2.714-23.229-2.714-23.229z" fill="#BF0020"/>
    <path d="M71.74 34.274s1.508 6.89 8.446 13.54c2.963 2.841.672 15.217-5.706 21.372 5.483-4.476 13.494-13.805 9.958-21.373-3.535-7.568-11.1-10.162-12.698-13.54zM48.223 33.785s-1.907 8.833-8.844 15.482c-2.964 2.842-3.708 11.386 2.67 17.54-5.483-4.475-10.458-9.971-6.923-17.54 3.536-7.567 11.5-12.105 13.097-15.482z" fill="#564036"/>
</svg>
