<svg width="118" height="118" viewBox="0 0 118 118" fill="none" xmlns="http://www.w3.org/2000/svg">
    <path d="M38.563 54.8s3.449 12.826 12.235 16.06c13.72 0 15.97.287 15.97.287S77.34 67.35 81.062 52.413C78.92 29.706 63.226 22.73 63.226 22.73l-24.663 32.07z" fill="#10303F"/>
    <path d="M91.623 91.481C87.185 83.08 59 77.534 59 77.534s-28.278 5.098-33.037 13.9c-3.282 11.659-5.748 26.11-5.748 26.11l38.785.14 38.195-.176s-1.4-15.437-5.57-26.026z" fill="#F1C9A5"/>
    <path d="M59 77.535s28.536 5.272 32.975 13.675C96.145 101.799 98 117.684 98 117.684H59v-40.15z" fill="#E4B692"/>
    <path d="M66.767 60.453H51.233v26.002h15.535V60.453z" fill="#F1C9A5"/>
    <path d="M66.768 60.453H59v26.002h7.77V60.453z" fill="#E4B692"/>
    <path opacity=".1" d="M51.232 72.502c1.396 4.01 7.035 6.31 11.176 6.31 1.499 0 2.957-.25 4.36-.71v-17.65H51.231v12.05z" fill="#DDAC8C"/>
    <path d="M78.975 44.045c0-16.241-8.943-25.476-19.976-25.476-11.031 0-19.976 9.235-19.976 25.476S47.968 73.453 59 73.453c11.033 0 19.976-13.167 19.976-29.408z" fill="#F1C9A5"/>
    <path d="M76.648 55.307c-3.62-.372-6.066-4.213-5.453-8.572.606-4.362 4.035-7.601 7.658-7.23 3.62.372 5.5 4.242 4.89 8.605-.606 4.362-3.474 7.566-7.095 7.197z" fill="#E4B692"/>
    <path d="M33.878 48.077c-.612-4.363 1.83-8.2 5.448-8.571 3.624-.372 7.054 2.867 7.66 7.229.611 4.36-1.834 8.2-5.455 8.572-3.62.369-7.045-2.868-7.653-7.23z" fill="#F1C9A5"/>
    <path d="M78.975 44.045c0-16.241-8.943-25.476-19.976-25.476v54.884c11.033 0 19.976-13.167 19.976-29.408z" fill="#E4B692"/>
    <path d="M58.332 22.668c10.312 0 18.877 5.952 20.62 13.788.213-.956.33-1.94.33-2.946 0-9.24-9.378-16.733-20.95-16.733-11.57 0-20.949 7.493-20.949 16.733 0 1.005.117 1.99.332 2.946 1.742-7.836 10.307-13.788 20.617-13.788z" fill="#FAE43E"/>
    <path d="M91.975 91.21c-1.173-2.219-4.03-4.218-7.593-5.96C78.797 86.28 69.514 86.956 59 86.956c-10.515 0-19.796-.675-25.381-1.707-3.565 1.742-6.421 3.741-7.593 5.96C22.745 102.869 20 117.684 20 117.684h78s-1.855-15.886-6.025-26.474z" fill="#1D3D4C"/>
    <path d="M72.226 27.017s.436 8.76-11.966 19.604c3.048-5.005 3.048-8.343 3.048-8.343s-2.559 5.345-10.066 10.663c.898-2.267 3.428-10.48 3.428-10.48s-4.815 7.43-7.262 12.122c.98-3.753 1.55-9.383 6.038-13.684-4.08 2.267-10.362 8.992-10.117 17.517-1.47-2.033-1.06-9.15-1.06-9.15s-3.672 3.285-2.45 15.953c-1.304-1.563-2.855-15.014-2.855-15.014s-2.745 2.398-2.42 10.01c-3.154-5.423-13.097-32.87 19.474-42.753 0 0 17.95-4.015 25.618 11.626 7.671 15.64.491 31.44-3.1 36.913 1.142-5.005 2.202-9.072 1.55-11.339-1.224 4.457-4.977 5.396-4.977 5.396s4.569-6.178 4.244-9.62c-3.428 5.24-7.506 6.1-7.916 5.943 6.201-7.898 6.201-11.575 5.958-14.39-2.694 6.492-5.714 7.978-5.714 7.978s4.896-9.464 4.896-13.609c-3.344 5.787-3.996 6.022-5.384 7.352 2.45-3.675 2.23-9.982 1.033-12.695z" fill="#10303F"/>
    <path d="M59.47 97.187l1.862 5.735h6.032l-4.88 3.543 1.863 5.734-4.877-3.544-4.878 3.544 1.864-5.734-4.878-3.543h6.029l1.863-5.735z" fill="#F06B7E"/>
    <path d="M70.63 101.785l1.354 4.167h4.38l-3.544 2.576 1.354 4.164-3.544-2.575-3.544 2.575 1.354-4.164-3.544-2.576h4.38l1.354-4.167zM47.042 101.785l1.352 4.167h4.382l-3.544 2.576 1.354 4.164-3.544-2.575-3.546 2.575 1.356-4.164-3.546-2.576h4.38l1.356-4.167z" fill="#F06B7E"/>
</svg>
