<svg width="118" height="118" viewBox="0 0 118 118" fill="none" xmlns="http://www.w3.org/2000/svg">
    <path d="M87.925 91.65c-4.373-8.279-32.494-13.475-32.494-13.475s-28.12 5.196-32.494 13.476C19.704 103.14 17 117.74 17 117.74h76.862s-1.825-15.654-5.937-26.09z" fill="#F1C9A5"/>
    <path d="M55.431 78.175s28.12 5.196 32.494 13.476c4.112 10.435 5.938 26.089 5.938 26.089H55.43V78.176z" fill="#E4B692"/>
    <path d="M63.087 61.343H47.776v25.623h15.31V61.343z" fill="#F1C9A5"/>
    <path d="M63.087 61.343H55.43v25.623h7.656V61.343z" fill="#E4B692"/>
    <path opacity=".1" d="M47.776 73.216c1.377 3.953 6.933 6.219 11.015 6.219 1.476 0 2.912-.248 4.296-.7V61.343H47.776v11.873z" fill="#DDAC8C"/>
    <path d="M75.115 45.175c0-16.004-8.812-25.105-19.684-25.105-10.871 0-19.684 9.1-19.684 25.105 0 16.004 8.813 28.98 19.684 28.98 10.872 0 19.684-12.975 19.684-28.98z" fill="#F1C9A5"/>
    <path d="M72.12 56.271c-3.569-.397-5.978-4.483-5.373-9.122.597-4.643 3.976-8.09 7.546-7.695 3.567.396 5.972 4.48 5.37 9.123-.6 4.642-3.975 8.086-7.543 7.694z" fill="#E4B692"/>
    <path d="M31.34 48.577c-.603-4.643 1.803-8.728 5.367-9.123 3.572-.394 6.951 3.052 7.55 7.695.603 4.639-1.809 8.726-5.375 9.122-3.568.392-6.943-3.052-7.542-7.694z" fill="#F1C9A5"/>
    <path d="M75.116 45.175c0-16.004-8.813-25.105-19.685-25.105v54.085c10.872 0 19.685-12.975 19.685-28.98z" fill="#E4B692"/>
    <path d="M46.12 67.163s-8.49-6.919-6.603-16.035c1.886-9.118 6.603-10.689 6.603-14.779 7.86 9.434 14.779 16.034 27.354 12.577 3.773 2.202-.943 13.523-6.603 19.496 16.036-8.805 34.586-41.19-4.088-53.767C24.108 2.076 13.105 65.276 46.12 67.162z" fill="#0F303F"/>
    <path d="M55.43 29.992c10.161 0 18.602 7.343 20.32 17.01.21-1.18.325-2.393.325-3.634 0-11.4-9.242-20.644-20.645-20.644-11.4 0-20.643 9.244-20.643 20.644 0 1.24.115 2.453.326 3.635C36.83 37.335 45.27 29.992 55.43 29.992z" fill="#F3641E"/>
    <path d="M40.417 81.937c2.754 1.475 9.192 4.55 15.013 4.55 7.657 0 17.664-3.748 17.664-3.748l-1.376-.397c-3.132-1.02-6.244-1.87-8.902-2.529-7.61 4.56-15.032.071-15.04.066-2.233.56-4.77 1.25-7.36 2.058z" fill="#FA582A"/>
    <path d="M87.925 91.65c-1.479-2.8-5.676-5.245-10.58-7.257-2.707 9.557-11.49 16.563-21.914 16.563-10.424 0-19.207-7.006-21.914-16.563-4.903 2.013-9.1 4.458-10.58 7.258C19.704 103.14 17 117.74 17 117.74h76.862s-1.825-15.654-5.937-26.09z" fill="#1594A3"/>
    <path d="M100.083 76.823c-4.218-1.504-10.936 1.777-15.35 1.353-4.822-.463-7.432 2.814-10.398 2.22-5.702-1.143-6.227.923-6.227.923s-1.379-2.798 4.324-1.885c5.703.914 10.061-1.812 11.364-3.57 1.97-2.656 8.554-2.03 8.554-2.03l-3.437-3.984c-2.42-.469-6.015-.157-7.967 3.203-1.953 3.36-3.75 3.749-9.228 3.124-5.48-.625-8.902 3.636-8.902 3.636l10.357 3.014s2.138.583 4.325.527c2.188-.057 4.475-2.31 9.051-1.963 4.902.371 9.354-2.011 15.122.145l-1.588-4.713z" fill="#FA582A"/>
</svg>
