<svg width="118" height="118" viewBox="0 0 118 118" fill="none" xmlns="http://www.w3.org/2000/svg">
    <g clip-path="url(#a)">
        <path d="M93.667 92.81C89.001 84.785 59.001 79.75 59.001 79.75s-30 5.035-34.666 13.058c-3.449 11.135-6.334 25.282-6.334 25.282h82s-1.949-15.169-6.334-25.282z" fill="#F1C9A5"/>
        <path d="M59.001 79.751s30 5.035 34.666 13.058c4.386 10.113 6.334 25.282 6.334 25.282h-41v-38.34z" fill="#E4B692"/>
        <path d="M67.168 63.44H50.834v24.83h16.334V63.44z" fill="#F1C9A5"/>
        <path d="M67.168 63.44h-8.167v24.83h8.167V63.44z" fill="#E4B692"/>
        <path opacity=".1" d="M50.834 74.945c1.469 3.83 7.397 6.026 11.751 6.026 1.575 0 3.107-.24 4.583-.679V63.44H50.834v11.506z" fill="#DDAC8C"/>
        <path d="M80.001 47.771c0-15.508-9.402-24.328-21-24.328s-21 8.82-21 24.328c0 20.861 9.402 28.083 21 28.083 11.597 0 21-8.091 21-28.083z" fill="#F1C9A5"/>
        <path d="M76.804 58.526c-3.807-.362-6.377-4.087-5.733-8.317.637-4.232 4.242-7.375 8.051-7.016 3.805.36 6.371 4.084 5.729 8.317-.638 4.234-4.24 7.374-8.047 7.016z" fill="#E4B692"/>
        <path d="M33.299 51.511c-.643-4.233 1.924-7.957 5.727-8.317 3.81-.36 7.416 2.782 8.055 7.016.642 4.23-1.93 7.956-5.734 8.317-3.808.357-7.41-2.783-8.048-7.016z" fill="#F1C9A5"/>
        <path d="M80.001 47.771c0-15.508-9.402-24.328-21-24.328v52.411c11.597 0 21-8.091 21-28.083z" fill="#E4B692"/>
        <path d="M93.667 92.81c-2.726-4.686-14.082-8.349-23.065-10.588L59.001 118.09 47.4 82.221c-8.983 2.24-20.34 5.903-23.066 10.588C20.885 103.945 18 118.091 18 118.091h82c.001 0-1.948-15.169-6.333-25.281z" fill="#0D313D"/>
        <path d="M47.027 82.222l11.974 35.869 11.645-35.87-11.645 12.045-11.974-12.044z" fill="#F1F2F2"/>
        <path d="M59.001 118.091l17.728-17.935-6.083-2.093 10.583-13.057-10.284-2.784-11.944 35.869z" fill="#2B5770"/>
        <path d="M59.001 118.091l-17.729-17.935 6.083-2.093-10.583-13.057 10.284-2.784 11.945 35.869z" fill="#2B5770"/>
        <path d="M43.973 96.799l9.077-7.664 5.935 5.13-8.152-12.862-4.979.347c-.357 5.002-1.881 15.049-1.881 15.049zM73.999 96.799l-9.077-7.664-5.936 5.13 8.152-12.862 4.979.347c.358 5.002 1.882 15.049 1.882 15.049z" fill="#fff"/>
        <path d="M82.057 44.275s-3.744-2.566-5.348 4.966c.521-7.078.142-16.841-6.181-18.628-3.513 5.742-17.418 9.44-26.549 7.4.701 6.508-1.404 11.868-3.793 13.27.14-5.232.138-8.423-3.514-7.401C35.69 32.909 42.306 19 60.146 19c17.841 0 23.738 10.983 21.911 25.275z" fill="#262421"/>
    </g>
    <defs>
        <clipPath id="a">
            <path fill="#fff" d="M0 0h118v118H0z"/>
        </clipPath>
    </defs>
</svg>
