<svg width="30" height="21" viewBox="0 0 30 21" fill="none" xmlns="http://www.w3.org/2000/svg">
    <path fill-rule="evenodd" clip-rule="evenodd" d="M2.71 0C1.213 0 0 1.213 0 2.71V21h6.12c-.015-.11-.023-.224-.023-.339 0-1.31 1.061-2.37 2.37-2.37 1.31 0 2.372 1.06 2.372 2.37 0 .115-.008.228-.024.339h8.177c-.016-.11-.024-.224-.024-.339 0-1.31 1.061-2.37 2.37-2.37 1.31 0 2.372 1.06 2.372 2.37 0 .115-.009.228-.024.339h6.12V2.71c0-1.497-1.213-2.71-2.71-2.71H2.71zm0 1.355c-.749 0-1.355.606-1.355 1.355v16.935h3.527c.442-1.564 1.88-2.71 3.586-2.71 1.705 0 3.143 1.146 3.585 2.71h5.7c.442-1.564 1.88-2.71 3.586-2.71 1.705 0 3.143 1.146 3.585 2.71h3.528V2.71c0-.749-.607-1.355-1.355-1.355H2.71z" fill="#000"/>
    <path fill-rule="evenodd" clip-rule="evenodd" d="M25.742 7.452H4.065v1.354h21.677V7.452zM4.065 10.839h14.903v1.354H4.065V10.84zm21.677-6.774H4.065v1.354h21.677V4.065z" fill="#000"/>
</svg>
