<svg width="32" height="32" viewBox="0 0 32 32" fill="none" xmlns="http://www.w3.org/2000/svg">
    <path fill-rule="evenodd" clip-rule="evenodd" d="M20.493 2.554c-.215-.056-.426-.041-.621.056L15.93 4.647l-.283.141-.016.012c-.083.062-.157.13-.221.206-.073.085-.126.182-.153.29-.025.1-.03.201-.019.305.013.116.056.222.123.317l.187.372h.042l2.365 3.703h.001c.118.189.287.316.5.375.22.062.436.03.63-.092l.203-.127c.213-.11.327-.306.351-.544.022-.222-.022-.432-.139-.618L18.221 6.99c.164.024.318.061.464.11l.007.002.008.002c1.344.345 2.54.947 3.59 1.807 1.05.862 1.896 1.905 2.534 3.13.604 1.173.957 2.396 1.06 3.67.103 1.275-.043 2.533-.44 3.775-.396 1.242-1.008 2.353-1.835 3.335-.828.983-1.818 1.775-2.974 2.379l-.004.002c-.244.133-.414.337-.502.602-.09.272-.066.546.065.807.09.179.22.321.39.423.164.098.34.151.526.151.09 0 .176-.01.26-.035.078-.022.157-.054.237-.094l.002-.001c.701-.36 1.353-.783 1.956-1.268.602-.485 1.15-1.02 1.644-1.604.495-.585.93-1.218 1.308-1.901s.683-1.402.917-2.156c.251-.755.418-1.52.498-2.294.081-.771.09-1.54.027-2.303-.063-.764-.202-1.52-.418-2.266-.215-.745-.503-1.468-.861-2.168-.378-.755-.828-1.451-1.35-2.09-.52-.638-1.095-1.213-1.724-1.725-.63-.513-1.314-.954-2.052-1.323-.735-.367-1.505-.659-2.31-.874l-.082-.026 1.556-.778.009-.006c.18-.113.315-.272.403-.47.096-.215.09-.437-.028-.639l-.08-.213-.012-.02c-.12-.191-.297-.318-.517-.376zm-9.521 2.954c-.269-.09-.535-.068-.784.066-.717.36-1.382.781-1.993 1.267-.61.485-1.168 1.024-1.671 1.617-.503.593-.947 1.225-1.333 1.899-.387.675-.698 1.39-.932 2.145-.251.755-.418 1.52-.499 2.294-.08.772-.09 1.54-.026 2.303.063.765.202 1.52.418 2.266.215.746.503 1.469.862 2.17.396.755.853 1.45 1.375 2.089.521.638 1.106 1.214 1.754 1.726.646.512 1.337.956 2.073 1.333.597.306 1.218.553 1.862.741l-1.622.841h-.001c-.2.101-.333.269-.393.485-.059.213-.031.42.08.609l.08.213.012.019c.113.18.268.311.467.373.2.063.402.042.591-.053l3.941-2.036.003-.002.28-.14.016-.012c.083-.062.157-.13.221-.205.073-.085.126-.182.153-.29.025-.1.03-.202.019-.305-.014-.121-.06-.232-.132-.33l-.118-.176v-.024l-2.468-3.862v-.001c-.118-.188-.287-.316-.5-.375-.222-.061-.442-.027-.646.087l-.005.002-.208.13c-.217.113-.327.314-.34.556-.01.219.04.424.154.606l1.248 1.947c-.613-.168-1.2-.395-1.762-.68-.612-.31-1.18-.677-1.706-1.099-.526-.422-1.004-.896-1.435-1.422-.431-.526-.81-1.09-1.139-1.694-.585-1.155-.934-2.373-1.046-3.657-.112-1.284.03-2.545.427-3.787.396-1.24 1.02-2.35 1.873-3.332.854-.984 1.859-1.777 3.015-2.382l.004-.002c.244-.133.414-.337.502-.602.091-.272.066-.545-.065-.807l-.002-.003-.002-.004c-.133-.244-.337-.414-.602-.502z" fill="#000"/>
</svg>
