<svg width="32" height="32" viewBox="0 0 32 32" fill="none" xmlns="http://www.w3.org/2000/svg">
    <path d="M2.03 3.059H0v15.556h2.03V3.059zM3.382 3.059h2.705v15.556H3.382V3.059zM12.924 18.202c0-1.502.78-2.822 1.956-3.578v3.991h-1.937c-.013-.136-.02-.274-.02-.413zM19.614 18.615v-3.89c-.585-.412-1.278-.68-2.029-.752v4.642h2.03z" fill="#000"/>
    <path fill-rule="evenodd" clip-rule="evenodd" d="M8.116 3.059h6.764v6.626c.882-.194 1.795-.252 2.705-.164V3.059h2.03v6.91c.515.181 1.02.414 1.51.7.428.25.826.533 1.195.84V3.06h4.058v15.556h-.975c-.062 1.172-.363 2.346-.924 3.45l6.703 3.923c.688.403.92 1.288.517 1.976-.403.689-1.288.92-1.977.517l-6.97-4.08c-2.725 2.622-6.96 3.234-10.384 1.23-3.008-1.762-4.563-5.055-4.252-8.31V3.058zm11.642 9.945c2.842 1.663 3.797 5.316 2.134 8.157-1.664 2.842-5.316 3.798-8.158 2.134-2.841-1.663-3.797-5.315-2.133-8.157 1.663-2.842 5.315-3.797 8.157-2.134z" fill="#000"/>
    <path d="M27.73 3.059h2.03v15.556h-2.03V3.059z" fill="#000"/>
</svg>
